<?xml version="1.0" encoding="UTF-8"?>
<!DOCTYPE svg PUBLIC "-//W3C//DTD SVG 1.0//EN" "http://www.w3.org/TR/2001/REC-SVG-20010904/DTD/svg10.dtd">
<!-- Creator: CorelDRAW 2020 (64-Bit) -->
<svg xmlns="http://www.w3.org/2000/svg" xml:space="preserve" width="50px" height="50px" version="1.0" shape-rendering="geometricPrecision" text-rendering="geometricPrecision" image-rendering="optimizeQuality" fill-rule="evenodd" clip-rule="evenodd"
viewBox="0 0 50 50"
 xmlns:xlink="http://www.w3.org/1999/xlink"
 xmlns:xodm="http://www.corel.com/coreldraw/odm/2003">
 <g id="Слой_x0020_1">
  <metadata id="CorelCorpID_0Corel-Layer"/>
  <path fill="#EA556F" d="M13.06 30.21c-2.23,0 -3.11,-1.05 -4.23,-1.65 0.76,3.28 2.24,6.2 4.61,8.55l1.99 1.78c3.84,2.85 6.63,3.54 11.61,3.54 2.16,0 4.6,-0.71 6.15,-1.38 5.11,-2.2 8.92,-6.94 10.19,-12.37 -0.71,0.19 -3.01,3.2 -7.52,0.24 -0.37,-0.24 -0.63,-0.49 -0.94,-0.71 -0.28,0.18 -0.55,0.44 -0.86,0.68 -4.38,3.27 -7.3,-0.47 -8.07,-0.68 -0.14,0.39 0.01,0.1 -0.31,0.4 -4.11,3.81 -8.2,-0.29 -8.62,-0.4 -0.15,0.4 0.01,0.08 -0.31,0.4l-1.3 0.94c-0.74,0.37 -1.31,0.66 -2.39,0.66z"/>
  <path fill="#EA556F" d="M13.53 26.69c-1.11,0 -1.42,0.06 -2.47,-0.36 -0.39,-0.15 -1,-0.51 -1.29,-0.59 0,-3.04 0.24,-4.88 1.13,-7.1 2.26,-5.66 8.23,-10.17 14.73,-10.17 3.21,0 5.17,0.36 7.76,1.65 3.4,1.69 6.51,4.95 7.94,8.5 0.94,2.35 1.11,4.03 1.11,7.24 -0.84,0.23 -0.97,0.83 -3.06,0.83 -2.04,0 -3.34,-1.17 -4.58,-2 -0.74,1.1 -2.7,2 -4.58,2 -1.41,0 -3.44,-1.17 -4,-2 -0.27,0.18 -0.54,0.44 -0.85,0.67 -2.34,1.74 -4.91,1.8 -7.27,0.05 -0.32,-0.23 -0.64,-0.53 -0.93,-0.72 -0.47,0.71 -2.45,2 -3.64,2zm-5.05 -0.53l0 -2.18c0,-6.43 4.38,-12.34 9.99,-15.16 2.92,-1.46 5.23,-1.64 8.57,-1.64 4.38,0 8.64,2.23 11.49,5.08 1.47,1.47 2.53,2.87 3.52,4.83 1.62,3.22 1.68,5.44 1.68,8.85l0 0.17 0 0.17 0 0.17c0,0.4 -1.39,1.26 -1.72,1.45 -2.96,1.66 -5.2,-0.06 -7.09,-1.33 -2.04,1.36 -3.73,2.97 -6.94,1.29 -0.74,-0.38 -1.23,-0.86 -1.88,-1.29 -0.36,0.24 -0.47,0.46 -0.89,0.75 -1.97,1.37 -3.8,1.67 -6.07,0.57 -0.78,-0.37 -1.3,-0.88 -1.97,-1.32 -0.36,0.24 -0.5,0.5 -0.87,0.77 -1.84,1.39 -3.91,1.62 -6.02,0.48 -1.29,-0.69 -1.69,-1.02 -1.8,-1.66z"/>
  <path fill="#EA556F" d="M23.62 13.76l-0.1 0.11 -0.23 0.36 -0.12 0.1c-1.05,1.69 -1.93,3.12 -0.64,5.24 0.7,1.16 0.63,0.85 1.19,1.51 0.54,0.64 1.73,2.02 1.8,2.78l0.23 0c0.04,-1.76 0.68,-0.46 -0.19,-3.45 -1.1,-3.83 1.77,-5.01 0.43,-10.76 -0.56,0.88 0.57,0.24 -2.37,4.11z"/>
  <path fill="#0B87DA" d="M27.28 21.87c-0.1,-1.2 -0.71,-1.83 -0.71,-3.41 0,-1.7 0.94,-2.89 0.94,-4.58l0.24 0.35c1.21,2.14 1.49,4.56 0.17,6.75 -0.25,0.43 -0.35,0.55 -0.64,0.89zm-0.47 -8.82c0,3.15 -1.74,4.01 -0.76,7.46 0.81,2.81 0.21,1.46 0.17,3.35 1.77,-0.93 3.41,-3.29 3.41,-5.99 0,-1.66 -0.62,-2.77 -1.18,-3.88 -0.26,-0.52 -0.53,-1.13 -0.82,-1.63 -0.33,-0.57 -0.65,-1.03 -0.82,-1.77l-0.24 0c0.07,0.79 0.24,1.57 0.24,2.46z"/>
  <polygon fill="#F29613" points="23.62,13.76 23.52,13.87 "/>
  <polygon fill="#F6AB0E" points="23.29,14.23 23.17,14.33 "/>
 </g>
</svg>
