<svg xmlns="http://www.w3.org/2000/svg" height="48" viewBox="0 -960 960 960" width="48"><path fill="#999D9E" d="M480-67q-84.395 0-160.64-32.047-76.245-32.048-132.255-88.058-56.01-56.01-88.057-132.255Q67-395.605 67-480q0-141.851 86-250.926Q239-840 375-879v87q-103 35-165.5 120.432Q147-586.135 147-480q0 138.837 97.115 235.919Q341.229-147 480.115-147 619-147 716-244.081 813-341.163 813-480q0-106.135-62.5-191.568Q688-757 586-792v-87q135 39 221 148.074Q893-621.851 893-480q0 84.395-32.047 160.64-32.048 76.245-88.058 132.255-56.01 56.01-132.255 88.057Q564.395-67 480-67Zm0-245L258-534l64-64 113 112v-404h91v404l112-112 64 64-222 222Z"/></svg>